<svg width="210" height="44" viewBox="0 0 210 44" fill="none" xmlns="http://www.w3.org/2000/svg">
<g clip-path="url(#clip0_230_273)">
<path d="M65.9681 44V11.3263H53.9976V0H91.008V11.3263H79.0375V44H65.9681Z" fill="#0D52FF"/>
<path d="M95.915 44V0H127.414V10.2561H108.993V16.9935H127.414V27.0064H108.993V33.7439H127.414V44H95.915Z" fill="#0D52FF"/>
<path d="M133.177 44V0H146.255V16.7503H161.539V0H174.609V44H161.539V27.6632H146.255V44H133.177Z" fill="#0D52FF"/>
<path d="M180.372 44V0H193.441V32.6818H209.992V44H180.363H180.372Z" fill="#0D52FF"/>
<path d="M44.0149 0.235352H0.922745C0.413127 0.235352 0 0.634641 0 1.12719V42.776C0 43.2685 0.413127 43.6678 0.922745 43.6678H44.0149C44.5246 43.6678 44.9377 43.2685 44.9377 42.776V1.12719C44.9377 0.634641 44.5246 0.235352 44.0149 0.235352Z" fill="#0D52FF"/>
<path d="M23.6475 30.9793V18.2746C23.6475 17.4152 24.369 16.7261 25.2498 16.7261H38.2185C38.8477 16.7261 39.1664 17.4639 38.7218 17.8936L24.8555 31.4657C24.4109 31.9035 23.6392 31.5954 23.6392 30.9793H23.6475Z" fill="#C2D7FF"/>
<path d="M21.2903 12.9153V25.4821C21.2903 26.4145 20.5102 27.1766 19.5371 27.1766H6.71096C6.08182 27.1766 5.76305 26.4388 6.20765 26.0091L20.074 12.437C20.5186 11.9992 21.2903 12.3073 21.2903 12.9234V12.9153Z" fill="white"/>
</g>
<defs>
<clipPath id="clip0_230_273">
<rect width="210" height="44" fill="white"/>
</clipPath>
</defs>
</svg>
