<svg width="321" height="486" viewBox="0 0 321 486" fill="none" xmlns="http://www.w3.org/2000/svg">
<g clip-path="url(#clip0_255_158)">
<path d="M67.6046 377.974V359.194C67.6046 358.748 67.2392 358.386 66.7895 358.386H1.56459C1.11489 358.386 0.749512 358.748 0.749512 359.194V377.974C0.749512 378.42 1.11489 378.783 1.56459 378.783H20.4987C20.9484 378.783 21.3138 379.145 21.3138 379.591V428.981C21.3138 429.427 21.6792 429.789 22.1289 429.789H46.2065C46.6562 429.789 47.0216 429.427 47.0216 428.981V379.591C47.0216 379.145 47.3869 378.783 47.8366 378.783H66.7708C67.2205 378.783 67.5859 378.42 67.5859 377.974H67.6046Z" fill="#231F20"/>
<path d="M80.6458 358.915L55.5189 428.712C55.3315 429.241 55.725 429.799 56.2871 429.799H80.2242C80.5896 429.799 80.9081 429.557 81.0112 429.213L82.1635 425.283C82.2666 424.939 82.5851 424.697 82.9505 424.697H99.3082C99.6736 424.697 99.9922 424.939 100.095 425.283L101.248 429.213C101.351 429.557 101.669 429.799 102.035 429.799H125.972C126.534 429.799 126.937 429.241 126.74 428.712L101.613 358.915C101.501 358.59 101.191 358.376 100.845 358.376H81.4234C81.0767 358.376 80.7676 358.59 80.6551 358.915H80.6458ZM88.4968 403.259L90.3424 396.838C90.5672 396.048 91.6915 396.048 91.9163 396.838L93.762 403.259C93.9119 403.78 93.5184 404.291 92.975 404.291H89.2837C88.7403 404.291 88.3469 403.77 88.4968 403.259Z" fill="#231F20"/>
<path d="M199.666 383.884C199.666 366.879 189.379 358.376 168.805 358.376H133.626C133.176 358.376 132.811 358.739 132.811 359.185V428.981C132.811 429.427 133.176 429.789 133.626 429.789H157.703C158.153 429.789 158.519 429.427 158.519 428.981V410.201C158.519 409.755 158.884 409.392 159.334 409.392H168.796C189.37 409.392 199.657 400.89 199.657 383.884H199.666ZM158.519 388.177V379.6C158.519 379.154 158.884 378.792 159.334 378.792H167.878C171.56 378.792 174.605 382.119 173.761 385.668C173.227 387.889 171.578 388.995 168.805 388.995H159.343C158.893 388.995 158.528 388.633 158.528 388.187L158.519 388.177Z" fill="#231F20"/>
<path d="M239.258 358.376H215.171C214.721 358.376 214.356 358.738 214.356 359.185V428.99C214.356 429.437 214.721 429.799 215.171 429.799H239.258C239.708 429.799 240.073 429.437 240.073 428.99V359.185C240.073 358.738 239.708 358.376 239.258 358.376Z" fill="#231F20"/>
<path d="M292.66 429.799H317.112C317.562 429.799 317.927 429.436 317.927 428.99V359.194C317.927 358.748 317.562 358.386 317.112 358.386H293.034C292.585 358.386 292.219 358.748 292.219 359.194V387.341C292.219 388.15 291.151 388.465 290.711 387.778L271.889 358.748C271.739 358.516 271.477 358.376 271.196 358.376H246.744C246.294 358.376 245.928 358.739 245.928 359.185V428.981C245.928 429.427 246.294 429.789 246.744 429.789H270.821C271.271 429.789 271.636 429.427 271.636 428.981V400.834C271.636 400.025 272.704 399.709 273.145 400.397L291.966 429.427C292.116 429.659 292.379 429.799 292.66 429.799Z" fill="#231F20"/>
<path d="M46.0566 471.504H22.1102C21.6605 471.504 21.2951 471.141 21.2951 470.695V436.071C21.2951 435.625 20.9297 435.263 20.48 435.263H3.8412C3.3915 435.263 3.02612 435.625 3.02612 436.071V485.192C3.02612 485.638 3.3915 486 3.8412 486H46.0566C46.5063 486 46.8717 485.638 46.8717 485.192V472.321C46.8717 471.875 46.5063 471.513 46.0566 471.513V471.504Z" fill="#231F20"/>
<path d="M76.5892 435.263C60.3532 435.523 52.0994 443.71 51.8371 459.823C51.6029 474.245 63.6885 486.232 78.2287 486C94.4741 485.74 102.728 477.553 102.99 461.44C103.224 447.018 91.1388 435.03 76.5986 435.263H76.5892ZM77.4043 471.504C72.5326 471.504 70.0967 467.88 70.0967 460.631C70.0967 453.383 72.5326 449.759 77.4043 449.759C82.276 449.759 84.7119 453.383 84.7119 460.631C84.7119 467.88 82.276 471.504 77.4043 471.504Z" fill="#231F20"/>
<path d="M158.275 435.253H141.645C141.196 435.253 140.83 435.616 140.83 436.062V460.622C140.83 467.87 138.394 471.494 133.523 471.494C128.651 471.494 126.215 467.87 126.215 460.622V436.062C126.215 435.616 125.85 435.253 125.4 435.253H108.771C108.321 435.253 107.956 435.616 107.956 436.062V459.786C107.956 474.403 120.041 486.353 134.778 485.981C151.005 485.582 159.118 477.126 159.118 460.622V436.062C159.118 435.616 158.753 435.253 158.303 435.253H158.275Z" fill="#231F20"/>
<path d="M214.815 435.253H198.186C197.736 435.253 197.37 435.616 197.37 436.062V455.028C197.37 455.836 196.302 456.152 195.862 455.465L182.999 435.616C182.849 435.384 182.587 435.244 182.306 435.244H165.301C164.852 435.244 164.486 435.607 164.486 436.053V485.173C164.486 485.619 164.852 485.981 165.301 485.981H181.931C182.381 485.981 182.746 485.619 182.746 485.173V466.207C182.746 465.398 183.814 465.083 184.254 465.77L197.118 485.619C197.267 485.851 197.53 485.991 197.811 485.991H214.815C215.265 485.991 215.63 485.628 215.63 485.182V436.062C215.63 435.616 215.265 435.253 214.815 435.253Z" fill="#231F20"/>
<path d="M269.631 453.374H245.685C245.235 453.374 244.87 453.736 244.87 454.182V467.052C244.87 467.499 245.235 467.861 245.685 467.861H250.857C249.667 470.277 247.662 471.485 244.861 471.485C239.989 471.485 237.553 467.861 237.553 460.613C237.553 453.365 239.989 449.74 244.861 449.74H265.968C266.418 449.74 266.783 449.378 266.783 448.932V436.062C266.783 435.616 266.418 435.253 265.968 435.253H245.704C230.967 435.253 218.919 447.241 219.293 461.858C219.696 477.953 228.222 486.009 244.861 486.009C249.732 486.009 252.168 484.801 252.168 482.385V485.201C252.168 485.647 252.534 486.009 252.983 486.009H269.613C270.062 486.009 270.428 485.647 270.428 485.201V454.201C270.428 453.755 270.062 453.392 269.613 453.392L269.631 453.374Z" fill="#231F20"/>
<path d="M317.149 435.253H274.934C274.484 435.253 274.119 435.616 274.119 436.062V485.182C274.119 485.628 274.484 485.991 274.934 485.991H317.149C317.599 485.991 317.964 485.628 317.964 485.182V472.312C317.964 471.866 317.599 471.504 317.149 471.504H293.203C292.753 471.504 292.388 471.141 292.388 470.695V468.697C292.388 468.251 292.753 467.889 293.203 467.889H317.149C317.599 467.889 317.964 467.526 317.964 467.08V454.21C317.964 453.764 317.599 453.402 317.149 453.402H293.203C292.753 453.402 292.388 453.039 292.388 452.593V450.595C292.388 450.149 292.753 449.787 293.203 449.787H317.149C317.599 449.787 317.964 449.425 317.964 448.978V436.108C317.964 435.662 317.599 435.3 317.149 435.3V435.253Z" fill="#231F20"/>
<path d="M202.008 118.582C172.328 118.564 142.648 118.573 112.968 118.591C111.469 118.591 109.942 118.666 108.49 118.982C99.6549 120.859 93.3873 127.67 92.2349 136.535C91.195 144.546 95.5983 152.686 103.29 156.635C104.808 157.416 105.304 158.113 104.967 159.822C99.2052 188.564 101.22 216.851 110.513 244.598C116.369 262.059 120.585 279.845 120.463 298.281C120.379 311.802 119.207 325.313 118.336 338.825C118.008 343.889 120.379 346.872 125.513 347.03C126.449 347.058 127.396 347.03 128.342 347.03H201.399C201.399 347.03 206.514 347.104 203.526 334.485C203.067 328.622 202.683 323.13 202.205 317.638C200.2 294.351 202.786 271.556 210.309 249.449C218.984 223.922 222.451 197.94 219.012 171.131C218.909 170.36 219.556 169.496 219.827 168.669C220.792 165.807 222.572 165.11 222.572 160.083C222.572 152.992 222.76 145.884 222.685 138.784C222.563 127.113 213.822 118.591 201.98 118.582H202.008ZM131.621 334.197C132.043 328.547 132.455 323.018 132.876 317.294H189.388C189.81 322.934 190.222 328.473 190.653 334.197H131.612H131.621ZM132.858 190.395C132.502 205.737 134.703 220.243 138.76 234.507C139.444 236.923 140.268 239.302 140.999 241.708C142.273 245.844 140.905 249.087 137.448 250.183C134.132 251.233 131.302 249.375 129.925 245.323C124.341 228.847 121.418 211.926 121.156 194.549C121.137 193.527 121.1 192.495 121.044 191.473C121.044 191.296 120.941 191.12 120.791 190.637H114.729C114.514 179.792 115.835 169.44 118.008 159.005H121.353C144.803 159.005 168.243 159.033 191.693 158.968C194.176 158.968 195.45 159.181 195.797 162.257C196.377 167.47 199.778 170.918 204.697 172.916C205.512 173.25 206.636 174.087 206.702 174.783C207.17 179.866 207.414 184.968 207.742 190.404H132.867L132.858 190.395ZM210.299 158.401C210.196 160.826 208.782 160.919 208.782 160.919C208.566 159.953 208.332 158.995 208.154 158.029C206.87 151.06 201.736 146.627 194.607 146.618C168.056 146.571 141.514 146.599 114.963 146.571C113.567 146.571 112.125 146.497 110.785 146.162C107.309 145.28 105.033 142.213 105.089 138.766C105.145 135.16 107.581 132.112 111.16 131.341C112.34 131.09 113.586 131.034 114.795 131.034C143.322 131.016 171.841 131.016 200.369 131.025C207.554 131.025 210.327 133.748 210.327 140.763C210.327 146.646 210.346 152.528 210.309 158.41L210.299 158.401Z" fill="#231F20"/>
<path d="M306.038 0H14.9618C6.59557 1.92356 0 7.973 0 15.3699V78.8751C0 86.6251 7.24201 92.9161 16.1891 92.9161H48.8765V96.6796C48.8765 98.7333 50.5629 100.406 52.6334 100.406H67.5203C69.5814 100.406 71.2771 98.7333 71.2771 96.6796V92.9161H88.6842C97.6219 92.9161 104.864 99.1979 104.864 106.957H210.449C210.449 99.2072 217.691 92.9161 226.629 92.9161H249.02V96.6796C249.02 98.7333 250.707 100.406 252.777 100.406H267.664C269.725 100.406 271.421 98.7333 271.421 96.6796V92.9161H304.83C313.767 92.9161 321.009 86.6344 321.009 78.8751V15.3699C321.009 7.973 314.414 1.92356 306.048 0H306.038ZM64.0257 91.9776H56.9898L53.2986 55.3464H67.7358L64.0257 91.9776ZM78.5379 29.4852C78.5379 34.401 76.7203 38.9172 73.4038 42.1974C70.106 45.4591 65.581 47.2526 60.6436 47.2526H60.55C55.6876 47.234 51.1063 45.2919 47.668 41.7979C44.2952 38.3689 42.4871 33.9178 42.5714 29.2436C42.7494 19.7652 50.9751 11.6993 60.5312 11.6157C60.5874 11.6157 60.6343 11.6157 60.6905 11.6157C65.4311 11.6157 69.8812 13.4184 73.2165 16.708C76.6454 20.0719 78.5285 24.6159 78.5379 29.4945V29.4852ZM164.43 91.7546H157.301L153.572 55.3092H168.037L164.43 91.7546ZM173.761 42.1324C170.351 45.4684 165.854 47.2154 160.786 47.2433C155.961 47.2061 151.483 45.3383 148.175 41.9837C144.821 38.5826 143.023 34.0107 143.088 29.1042C143.229 19.4865 151.258 11.6343 160.992 11.6064H161.039C165.817 11.6064 170.314 13.4556 173.705 16.8288C177.134 20.2392 179.017 24.7739 178.999 29.5968C178.98 34.3917 177.125 38.8428 173.771 42.1324H173.761ZM263.757 92.024H256.721L252.974 55.3371H267.411L263.757 92.024ZM273.313 41.9558C269.856 45.3662 265.266 47.2433 260.384 47.2433H260.291C255.41 47.2247 250.922 45.4034 247.662 42.1138C244.345 38.7778 242.546 34.1873 242.593 29.1972C242.64 24.3743 244.57 19.886 248.018 16.5686C251.465 13.2605 256.056 11.532 260.862 11.6064C270.465 11.8201 278.569 20.0068 278.569 29.4852C278.569 34.1687 276.695 38.6012 273.304 41.9465L273.313 41.9558Z" fill="#231F20"/>
</g>
<defs>
<clipPath id="clip0_255_158">
<rect width="321" height="486" fill="white"/>
</clipPath>
</defs>
</svg>
