<svg width="95" height="94" viewBox="0 0 95 94" fill="none" xmlns="http://www.w3.org/2000/svg">
<g clip-path="url(#clip0_2_706)">
<ellipse cx="47.17" cy="47.09" rx="47" ry="46.5" fill="#0D52FF"/>
<path d="M49.8029 66.9646V39.0081C49.8029 37.117 51.3537 35.6005 53.2472 35.6005H81.1256C82.478 35.6005 83.1633 37.224 82.2075 38.1696L52.3996 68.035C51.4439 68.9984 49.7849 68.3205 49.7849 66.9646H49.8029Z" fill="#C2D7FF"/>
<path d="M44.7358 27.1976V54.8508C44.7358 56.9025 43.0588 58.5795 40.967 58.5795H13.3952C12.0427 58.5795 11.3575 56.956 12.3132 56.0104L42.1211 26.145C43.0768 25.1816 44.7358 25.8595 44.7358 27.2154V27.1976Z" fill="white"/>
</g>
<defs>
<clipPath id="clip0_2_706">
<rect width="94" height="93" fill="white" transform="translate(0.170044 0.589966)"/>
</clipPath>
</defs>
</svg>
