<svg width="210" height="44" viewBox="0 0 210 44" fill="none" xmlns="http://www.w3.org/2000/svg">
<g clip-path="url(#clip0_2_747)">
<path d="M65.9679 44V11.3263H53.9974V0H91.0078V11.3263H79.0373V44H65.9679Z" fill="white"/>
<path d="M95.9152 44V0H127.414V10.2561H108.993V16.9935H127.414V27.0064H108.993V33.7439H127.414V44H95.9152Z" fill="white"/>
<path d="M133.177 44V0H146.255V16.7503H161.539V0H174.609V44H161.539V27.6632H146.255V44H133.177Z" fill="white"/>
<path d="M180.371 44V0H193.441V32.6818H209.992V44H180.363H180.371Z" fill="white"/>
<path d="M44.0149 0.235107H0.922745C0.413127 0.235107 0 0.634397 0 1.12694V42.7757C0 43.2683 0.413127 43.6676 0.922745 43.6676H44.0149C44.5246 43.6676 44.9377 43.2683 44.9377 42.7757V1.12694C44.9377 0.634397 44.5246 0.235107 44.0149 0.235107Z" fill="white"/>
<path d="M23.6474 30.9791V18.2745C23.6474 17.4151 24.3688 16.726 25.2496 16.726H38.2184C38.8476 16.726 39.1663 17.4637 38.7217 17.8934L24.8554 31.4656C24.4108 31.9034 23.639 31.5953 23.639 30.9791H23.6474Z" fill="#C2D7FF"/>
<path d="M21.2903 12.9155V25.4823C21.2903 26.4146 20.5101 27.1767 19.5371 27.1767H6.7109C6.08176 27.1767 5.76299 26.439 6.20758 26.0092L20.0739 12.4371C20.5185 11.9993 21.2903 12.3074 21.2903 12.9236V12.9155Z" fill="#0D52FF"/>
</g>
<defs>
<clipPath id="clip0_2_747">
<rect width="210" height="44" fill="white"/>
</clipPath>
</defs>
</svg>
